<svg width="96" height="33" viewBox="0 0 96 33" fill="none" xmlns="http://www.w3.org/2000/svg">
<path d="M24.8406 22.8624C23.278 26.1663 19.7542 28.5007 16.0488 28.6454C12.3434 28.7885 8.63796 26.7781 6.8214 23.6173C5.22696 20.859 5.20082 17.4405 6.42055 14.5858C6.98282 13.2698 8.37181 13.8241 8.23632 15.2487C8.19942 15.7159 8.23632 16.1101 8.3087 16.4692C8.70892 18.2285 10.1976 19.5585 12.1235 19.8447C14.0124 20.1323 15.7566 19.3775 16.6649 17.8329C17.4639 16.5043 17.5362 14.8516 16.8834 13.3801C16.7018 12.9845 16.4832 12.5903 16.3015 12.2312C16.1568 11.98 16.0475 11.7289 15.9013 11.4764C15.175 9.97174 14.8868 8.34761 15.0362 6.88312C15.1524 5.74452 16.5104 5.51109 17.3485 6.29053C17.8113 6.72091 18.2765 7.14157 18.734 7.56223C19.6054 8.35207 20.5506 9.21489 21.3865 10.0763C23.7849 12.5188 25.1642 14.8167 25.6016 17.1163C25.9663 18.9836 25.712 21.0314 24.8406 22.8624Z" fill="url(#paint0_linear_1750_1421)"/>
<path d="M57.156 22.8624C55.5935 26.1663 52.0696 28.5007 48.3642 28.6454C44.6588 28.7885 40.9534 26.7781 39.1368 23.6173C37.5424 20.859 37.5162 17.4405 38.736 14.5858C39.2982 13.2698 40.6872 13.8241 40.5517 15.2487C40.5149 15.7159 40.5517 16.1101 40.6241 16.4692C41.0244 18.2285 42.5131 19.5585 44.4389 19.8447C46.3278 20.1323 48.072 19.3775 48.9803 17.8329C49.7793 16.5043 49.8517 14.8516 49.1988 13.3801C49.0172 12.9845 48.7986 12.5903 48.617 12.2312C48.4722 11.98 48.3629 11.7289 48.2167 11.4764C47.4905 9.97174 47.2022 8.34761 47.3516 6.88312C47.4678 5.74452 48.8258 5.51109 49.6639 6.29053C50.1267 6.72091 50.592 7.14157 51.0494 7.56223C51.9208 8.35207 52.866 9.21489 53.7019 10.0763C56.1003 12.5188 57.4796 14.8167 57.917 17.1163C58.2818 18.9836 58.0274 21.0314 57.156 22.8624Z" fill="url(#paint1_linear_1750_1421)"/>
<path d="M89.4724 22.8624C87.9099 26.1663 84.386 28.5007 80.6806 28.6454C76.9752 28.7885 73.2698 26.7781 71.4532 23.6173C69.8588 20.859 69.8327 17.4405 71.0524 14.5858C71.6147 13.2698 73.0036 13.8241 72.8682 15.2487V15.2487C72.8313 15.7159 72.8682 16.1101 72.9405 16.4692C73.3408 18.2285 74.8295 19.5585 76.7553 19.8447C78.6442 20.1323 80.3884 19.3775 81.2967 17.8329C82.0957 16.5043 82.1681 14.8516 81.5153 13.3801C81.3336 12.9845 81.115 12.5903 80.9334 12.2312C80.7886 11.98 80.6793 11.7289 80.5331 11.4764C79.8069 9.97174 79.5186 8.34761 79.668 6.88312C79.7842 5.74452 81.1422 5.51109 81.9803 6.29053C82.4431 6.72091 82.9084 7.14157 83.3658 7.56223C84.2372 8.35207 85.1824 9.21489 86.0183 10.0763C88.4167 12.5188 89.796 14.8167 90.2334 17.1163C90.5982 18.9836 90.3438 21.0314 89.4724 22.8624Z" stroke="#2B483C" stroke-linecap="round" stroke-linejoin="round"/>
<defs>
<linearGradient id="paint0_linear_1750_1421" x1="5.55957" y1="26.6606" x2="26.8617" y2="26.6606" gradientUnits="userSpaceOnUse">
<stop stop-color="#F7C479"/>
<stop offset="0.253472" stop-color="#DCA855"/>
<stop offset="0.581597" stop-color="#C79442"/>
<stop offset="0.763889" stop-color="#BC7F1D"/>
<stop offset="1" stop-color="#BA7403"/>
</linearGradient>
<linearGradient id="paint1_linear_1750_1421" x1="37.875" y1="26.6606" x2="59.1772" y2="26.6606" gradientUnits="userSpaceOnUse">
<stop stop-color="#F7C479"/>
<stop offset="0.253472" stop-color="#DCA855"/>
<stop offset="0.581597" stop-color="#C79442"/>
<stop offset="0.763889" stop-color="#BC7F1D"/>
<stop offset="1" stop-color="#BA7403"/>
</linearGradient>
</defs>
</svg>
